<svg width="71" height="28" viewBox="0 0 71 28" fill="none" xmlns="http://www.w3.org/2000/svg">
    <g clip-path="url(#clip0_44_2734)">
        <path d="M48.9602 15.9887H40.3441C40.1425 15.9887 39.9492 15.9092 39.8066 15.7678C39.6641 15.6264 39.584 15.4347 39.584 15.2347V6.68803C39.584 6.48805 39.6641 6.29627 39.8066 6.15486C39.9492 6.01346 40.1425 5.93402 40.3441 5.93402C40.5457 5.93402 40.739 6.01346 40.8816 6.15486C41.0242 6.29627 41.1042 6.48805 41.1042 6.68803V14.4882H48.9678C49.1694 14.4882 49.3627 14.5677 49.5053 14.7091C49.6478 14.8505 49.7279 15.0422 49.7279 15.2422C49.7279 15.4422 49.6478 15.634 49.5053 15.7754C49.3627 15.9168 49.1694 15.9962 48.9678 15.9962L48.9602 15.9887Z" fill="white"/>
        <path d="M24.6169 15.9887H16.0009C15.7993 15.9887 15.6059 15.9093 15.4634 15.7679C15.3208 15.6264 15.2407 15.4347 15.2407 15.2347V10.967C15.2407 10.767 15.3208 10.5753 15.4634 10.4339C15.6059 10.2925 15.7993 10.213 16.0009 10.213H24.6169C24.8185 10.213 25.0119 10.2925 25.1544 10.4339C25.297 10.5753 25.3771 10.767 25.3771 10.967C25.3771 11.167 25.297 11.3588 25.1544 11.5002C25.0119 11.6416 24.8185 11.721 24.6169 11.721H16.7534V14.5033H24.6169C24.8185 14.5033 25.0119 14.5827 25.1544 14.7241C25.297 14.8655 25.3771 15.0573 25.3771 15.2573C25.3771 15.4573 25.297 15.6491 25.1544 15.7905C25.0119 15.9319 24.8185 16.0113 24.6169 16.0113V15.9887Z" fill="white"/>
        <path d="M24.6169 7.44203H16.0009C15.7993 7.44203 15.6059 7.36259 15.4634 7.22119C15.3208 7.07979 15.2407 6.888 15.2407 6.68803C15.2407 6.48805 15.3208 6.29627 15.4634 6.15486C15.6059 6.01346 15.7993 5.93402 16.0009 5.93402H24.6169C24.8185 5.93402 25.0119 6.01346 25.1544 6.15486C25.297 6.29627 25.3771 6.48805 25.3771 6.68803C25.3771 6.888 25.297 7.07979 25.1544 7.22119C25.0119 7.36259 24.8185 7.44203 24.6169 7.44203Z" fill="white"/>
        <path d="M34.5669 5.93402H28.1742C27.9726 5.93402 27.7793 6.01346 27.6367 6.15486C27.4942 6.29627 27.4141 6.48805 27.4141 6.68803V15.2347C27.4141 15.4347 27.4942 15.6264 27.6367 15.7678C27.7793 15.9092 27.9726 15.9887 28.1742 15.9887C28.3758 15.9887 28.5691 15.9092 28.7117 15.7678C28.8542 15.6264 28.9343 15.4347 28.9343 15.2347V7.44203H34.5745C34.7737 7.43198 34.9728 7.46222 35.1599 7.5309C35.3469 7.59959 35.5179 7.7053 35.6625 7.84159C35.8071 7.97789 35.9222 8.14192 36.0009 8.32373C36.0795 8.50553 36.1201 8.70131 36.1201 8.89915C36.1201 9.09699 36.0795 9.29276 36.0009 9.47457C35.9222 9.65637 35.8071 9.82041 35.6625 9.95671C35.5179 10.093 35.3469 10.1987 35.1599 10.2674C34.9728 10.3361 34.7737 10.3663 34.5745 10.3563H31.3819C31.1803 10.3563 30.987 10.4357 30.8444 10.5771C30.7019 10.7185 30.6218 10.9103 30.6218 11.1103C30.6218 11.3102 30.7019 11.502 30.8444 11.6434C30.987 11.7848 31.1803 11.8643 31.3819 11.8643H34.5745C34.974 11.8784 35.3723 11.8126 35.7456 11.6708C36.1188 11.5289 36.4595 11.3139 36.7472 11.0385C37.0348 10.7632 37.2637 10.4332 37.4199 10.0682C37.5762 9.70323 37.6567 9.31076 37.6567 8.91423C37.6567 8.5177 37.5762 8.12523 37.4199 7.76025C37.2637 7.39527 37.0348 7.06527 36.7472 6.78993C36.4595 6.5146 36.1188 6.29958 35.7456 6.1577C35.3723 6.01583 34.974 5.95001 34.5745 5.96418L34.5669 5.93402Z" fill="white"/>
        <path d="M52.3048 15.9887C52.1874 15.9886 52.0716 15.9615 51.9665 15.9095C51.7894 15.8191 51.6552 15.6634 51.5927 15.4759C51.5301 15.2884 51.5443 15.084 51.632 14.9067L55.9382 6.36003C56.0016 6.23695 56.0979 6.13353 56.2165 6.06106C56.3352 5.98859 56.4716 5.94986 56.6109 5.9491V5.9491C56.7502 5.94986 56.8867 5.98859 57.0053 6.06106C57.124 6.13353 57.2202 6.23695 57.2836 6.36003L61.5936 14.9067C61.654 15.0798 61.6489 15.2688 61.5792 15.4384C61.5094 15.608 61.3798 15.7466 61.2145 15.8283C61.0492 15.9101 60.8596 15.9293 60.6811 15.8825C60.5026 15.8357 60.3473 15.726 60.2443 15.574L56.6109 8.36568L52.9737 15.574C52.9111 15.6972 52.8156 15.801 52.6977 15.8741C52.5798 15.9473 52.4438 15.9869 52.3048 15.9887V15.9887Z" fill="white"/>
        <path d="M13.5001 6.01319C13.3174 5.93394 13.1107 5.92905 12.9244 5.99957C12.7382 6.07009 12.5873 6.21037 12.5043 6.39019L9.37259 13.2554L7.64709 9.48539L8.74929 7.01602C8.79812 6.84157 8.78203 6.6555 8.70397 6.49184C8.62592 6.32818 8.4911 6.19784 8.32415 6.12465C8.15721 6.05146 7.96929 6.04029 7.79473 6.0932C7.62017 6.14611 7.47063 6.25956 7.37344 6.41281L6.81475 7.66069L6.24465 6.40527C6.21325 6.30247 6.16008 6.20751 6.08868 6.12675C6.01728 6.04599 5.92932 5.98129 5.83067 5.93699C5.73202 5.89268 5.62496 5.8698 5.51667 5.86987C5.40838 5.86994 5.30137 5.89296 5.20277 5.93739C5.10418 5.98182 5.0163 6.04663 4.94501 6.12749C4.87371 6.20834 4.82066 6.30337 4.7894 6.40621C4.75814 6.50906 4.74939 6.61734 4.76374 6.72381C4.77809 6.83028 4.81522 6.93248 4.87262 7.02356L6.01281 9.48916L4.70539 12.3431C4.62667 12.5238 4.62236 12.728 4.69338 12.9118C4.76441 13.0957 4.90512 13.2447 5.08545 13.327C5.18144 13.3685 5.28484 13.3902 5.3895 13.3911C5.53507 13.3901 5.67729 13.3476 5.79924 13.2688C5.92118 13.1899 6.01774 13.078 6.07742 12.9463L6.81095 11.3063L8.68848 15.3591C8.7503 15.4876 8.84753 15.5961 8.96893 15.6721C9.09034 15.748 9.23095 15.7884 9.37449 15.7884C9.51803 15.7884 9.65863 15.748 9.78004 15.6721C9.90144 15.5961 9.99869 15.4876 10.0605 15.3591L13.8612 6.98963C13.9389 6.81202 13.9447 6.61155 13.8775 6.42977C13.8103 6.248 13.6752 6.09883 13.5001 6.01319V6.01319Z" fill="white"/>
        <path d="M70.7795 6.16775C70.6374 6.02959 70.4464 5.95221 70.2475 5.95221C70.0485 5.95221 69.8574 6.02959 69.7154 6.16775L65.9375 9.91139L62.1635 6.16775C62.0171 6.05885 61.836 6.00598 61.6535 6.01884C61.471 6.03171 61.2993 6.10945 61.1699 6.23779C61.0405 6.36613 60.9621 6.53646 60.9492 6.7175C60.9362 6.89855 60.9895 7.07815 61.0993 7.22335L65.185 11.2799V15.2422C65.185 15.4422 65.2651 15.634 65.4076 15.7754C65.5502 15.9168 65.7435 15.9962 65.9451 15.9962C66.1467 15.9962 66.34 15.9168 66.4826 15.7754C66.6251 15.634 66.7052 15.4422 66.7052 15.2422V11.2761L70.7947 7.22335C70.932 7.08044 71.0073 6.88984 71.0045 6.69247C71.0016 6.4951 70.9209 6.30671 70.7795 6.16775V6.16775Z" fill="white"/>
        <path d="M6.81079 4.54287C7.26209 4.54287 7.62793 4.17997 7.62793 3.73231C7.62793 3.28465 7.26209 2.92175 6.81079 2.92175C6.3595 2.92175 5.99365 3.28465 5.99365 3.73231C5.99365 4.17997 6.3595 4.54287 6.81079 4.54287Z" fill="white"/>
        <path d="M63.5127 19.8341C63.5119 19.9942 63.4634 20.1506 63.3731 20.2834C63.2829 20.4162 63.155 20.5195 63.0056 20.5803C62.8563 20.641 62.6921 20.6565 62.5338 20.6248C62.3756 20.5931 62.2303 20.5157 62.1164 20.4021C62.0025 20.2886 61.9251 20.1442 61.8938 19.9871C61.8626 19.83 61.879 19.6672 61.941 19.5193C62.0029 19.3714 62.1077 19.245 62.242 19.1561C62.3763 19.0672 62.5341 19.0198 62.6956 19.0198C62.8032 19.0198 62.9098 19.0409 63.0092 19.0818C63.1085 19.1228 63.1988 19.1828 63.2747 19.2585C63.3506 19.3342 63.4108 19.424 63.4516 19.5228C63.4924 19.6215 63.5132 19.7273 63.5127 19.8341V19.8341Z" fill="white"/>
        <path d="M35.8707 28C26.5705 28 17.7568 25.8323 11.0562 21.9001C4.26065 17.9114 0.334579 12.5278 0.000121103 6.73706C-0.0220129 6.63088 -0.0207992 6.5212 0.0036819 6.41553C0.028163 6.30985 0.0753408 6.21065 0.141985 6.1247C0.208628 6.03875 0.293174 5.96807 0.38986 5.91748C0.486546 5.86689 0.593092 5.83758 0.702235 5.83155C0.811379 5.82552 0.920549 5.84291 1.0223 5.88254C1.12405 5.92217 1.21599 5.9831 1.29184 6.06117C1.3677 6.13925 1.42568 6.23264 1.46184 6.33497C1.498 6.43729 1.51149 6.54616 1.50138 6.65412C1.80924 11.9322 5.47306 16.8898 11.8202 20.6032C18.2813 24.4034 26.8365 26.4958 35.8707 26.4958C43.7647 26.4958 51.48 24.8445 57.5952 21.8511C57.6851 21.7897 57.7872 21.7482 57.8947 21.7295C58.0022 21.7107 58.1124 21.7151 58.218 21.7424C58.3236 21.7697 58.4221 21.8192 58.5066 21.8876C58.5912 21.9559 58.66 22.0416 58.7082 22.1387C58.7565 22.2357 58.7831 22.342 58.7862 22.4502C58.7894 22.5584 58.7691 22.666 58.7266 22.7657C58.6841 22.8654 58.6205 22.9548 58.54 23.0279C58.4596 23.1011 58.3642 23.1562 58.2603 23.1895C51.8334 26.3412 44.1067 28 35.8707 28Z" fill="white"/>
    </g>
    <defs>
        <clipPath id="clip0_44_2734">
            <rect width="71" height="28" fill="white"/>
        </clipPath>
    </defs>
</svg>
